<?xml version="1.0" encoding="UTF-8" standalone="no"?>
<!DOCTYPE svg PUBLIC "-//W3C//DTD SVG 1.1//EN"
 "http://www.w3.org/Graphics/SVG/1.1/DTD/svg11.dtd">
<!-- Generated by graphviz version 2.43.0 (0)
 -->
<!-- Title: include/Promise.hpp Pages: 1 -->
<svg width="463pt" height="137pt"
 viewBox="0.00 0.00 462.50 137.00" xmlns="http://www.w3.org/2000/svg" xmlns:xlink="http://www.w3.org/1999/xlink">
<g id="graph0" class="graph" transform="scale(1 1) rotate(0) translate(4 133)">
<title>include/Promise.hpp</title>
<!-- Node1 -->
<g id="Node000001" class="node">
<title>Node1</title>
<g id="a_Node000001"><a xlink:title="implements the JS&#45;like Promise class">
<polygon fill="#999999" stroke="#666666" points="266,-129 150,-129 150,-110 266,-110 266,-129"/>
<text text-anchor="middle" x="208" y="-117" font-family="Helvetica,sans-Serif" font-size="10.00">include/Promise.hpp</text>
</a>
</g>
</g>
<!-- Node2 -->
<g id="Node000002" class="node">
<title>Node2</title>
<g id="a_Node000002"><a xlink:title=" ">
<polygon fill="#e0e0e0" stroke="#999999" points="46,-74 0,-74 0,-55 46,-55 46,-74"/>
<text text-anchor="middle" x="23" y="-62" font-family="Helvetica,sans-Serif" font-size="10.00">future</text>
</a>
</g>
</g>
<!-- Node1&#45;&gt;Node2 -->
<g id="edge1_Node000001_Node000002" class="edge">
<title>Node1&#45;&gt;Node2</title>
<g id="a_edge1_Node000001_Node000002"><a xlink:title=" ">
<path fill="none" stroke="#63b8ff" d="M178.28,-109.98C144.81,-100.4 90.59,-84.86 55.88,-74.92"/>
<polygon fill="#63b8ff" stroke="#63b8ff" points="56.79,-71.54 46.21,-72.15 54.86,-78.27 56.79,-71.54"/>
</a>
</g>
</g>
<!-- Node3 -->
<g id="Node000003" class="node">
<title>Node3</title>
<g id="a_Node000003"><a xlink:title=" ">
<polygon fill="#e0e0e0" stroke="#999999" points="120,-74 64,-74 64,-55 120,-55 120,-74"/>
<text text-anchor="middle" x="92" y="-62" font-family="Helvetica,sans-Serif" font-size="10.00">optional</text>
</a>
</g>
</g>
<!-- Node1&#45;&gt;Node3 -->
<g id="edge2_Node000001_Node000003" class="edge">
<title>Node1&#45;&gt;Node3</title>
<g id="a_edge2_Node000001_Node000003"><a xlink:title=" ">
<path fill="none" stroke="#63b8ff" d="M189.36,-109.98C170.7,-101.46 141.75,-88.23 120.26,-78.41"/>
<polygon fill="#63b8ff" stroke="#63b8ff" points="121.53,-75.14 110.98,-74.17 118.62,-81.51 121.53,-75.14"/>
</a>
</g>
</g>
<!-- Node4 -->
<g id="Node000004" class="node">
<title>Node4</title>
<g id="a_Node000004"><a xlink:title=" ">
<polygon fill="#e0e0e0" stroke="#999999" points="203.5,-74 138.5,-74 138.5,-55 203.5,-55 203.5,-74"/>
<text text-anchor="middle" x="171" y="-62" font-family="Helvetica,sans-Serif" font-size="10.00">exception</text>
</a>
</g>
</g>
<!-- Node1&#45;&gt;Node4 -->
<g id="edge3_Node000001_Node000004" class="edge">
<title>Node1&#45;&gt;Node4</title>
<g id="a_edge3_Node000001_Node000004"><a xlink:title=" ">
<path fill="none" stroke="#63b8ff" d="M201.89,-109.75C196.72,-102.34 189.15,-91.5 182.81,-82.41"/>
<polygon fill="#63b8ff" stroke="#63b8ff" points="185.59,-80.29 177,-74.09 179.85,-84.29 185.59,-80.29"/>
</a>
</g>
</g>
<!-- Node5 -->
<g id="Node000005" class="node">
<title>Node5</title>
<g id="a_Node000005"><a xlink:title=" ">
<polygon fill="#e0e0e0" stroke="#999999" points="270,-74 222,-74 222,-55 270,-55 270,-74"/>
<text text-anchor="middle" x="246" y="-62" font-family="Helvetica,sans-Serif" font-size="10.00">mutex</text>
</a>
</g>
</g>
<!-- Node1&#45;&gt;Node5 -->
<g id="edge4_Node000001_Node000005" class="edge">
<title>Node1&#45;&gt;Node5</title>
<g id="a_edge4_Node000001_Node000005"><a xlink:title=" ">
<path fill="none" stroke="#63b8ff" d="M214.27,-109.75C219.59,-102.34 227.36,-91.5 233.88,-82.41"/>
<polygon fill="#63b8ff" stroke="#63b8ff" points="236.86,-84.26 239.84,-74.09 231.17,-80.18 236.86,-84.26"/>
</a>
</g>
</g>
<!-- Node6 -->
<g id="Node000006" class="node">
<title>Node6</title>
<g id="a_Node000006"><a xlink:href="../../da/d81/Functor_8hpp.html" target="_top" xlink:title="implements some Functor concepts">
<polygon fill="white" stroke="#666666" points="361.5,-74 288.5,-74 288.5,-55 361.5,-55 361.5,-74"/>
<text text-anchor="middle" x="325" y="-62" font-family="Helvetica,sans-Serif" font-size="10.00">Functor.hpp</text>
</a>
</g>
</g>
<!-- Node1&#45;&gt;Node6 -->
<g id="edge5_Node000001_Node000006" class="edge">
<title>Node1&#45;&gt;Node6</title>
<g id="a_edge5_Node000001_Node000006"><a xlink:title=" ">
<path fill="none" stroke="#63b8ff" d="M226.8,-109.98C245.62,-101.46 274.82,-88.23 296.5,-78.41"/>
<polygon fill="#63b8ff" stroke="#63b8ff" points="298.2,-81.48 305.86,-74.17 295.31,-75.11 298.2,-81.48"/>
</a>
</g>
</g>
<!-- Node8 -->
<g id="Node000008" class="node">
<title>Node8</title>
<g id="a_Node000008"><a xlink:title=" ">
<polygon fill="#e0e0e0" stroke="#999999" points="454.5,-74 379.5,-74 379.5,-55 454.5,-55 454.5,-74"/>
<text text-anchor="middle" x="417" y="-62" font-family="Helvetica,sans-Serif" font-size="10.00">Promise.tpp</text>
</a>
</g>
</g>
<!-- Node1&#45;&gt;Node8 -->
<g id="edge7_Node000001_Node000008" class="edge">
<title>Node1&#45;&gt;Node8</title>
<g id="a_edge7_Node000001_Node000008"><a xlink:title=" ">
<path fill="none" stroke="#63b8ff" d="M241.58,-109.98C277.35,-100.91 334.12,-86.52 373.34,-76.57"/>
<polygon fill="#63b8ff" stroke="#63b8ff" points="374.32,-79.93 383.16,-74.08 372.6,-73.15 374.32,-79.93"/>
</a>
</g>
</g>
<!-- Node7 -->
<g id="Node000007" class="node">
<title>Node7</title>
<g id="a_Node000007"><a xlink:title=" ">
<polygon fill="#e0e0e0" stroke="#999999" points="355,-19 295,-19 295,0 355,0 355,-19"/>
<text text-anchor="middle" x="325" y="-7" font-family="Helvetica,sans-Serif" font-size="10.00">concepts</text>
</a>
</g>
</g>
<!-- Node6&#45;&gt;Node7 -->
<g id="edge6_Node000006_Node000007" class="edge">
<title>Node6&#45;&gt;Node7</title>
<g id="a_edge6_Node000006_Node000007"><a xlink:title=" ">
<path fill="none" stroke="#63b8ff" d="M325,-54.75C325,-47.8 325,-37.85 325,-29.13"/>
<polygon fill="#63b8ff" stroke="#63b8ff" points="328.5,-29.09 325,-19.09 321.5,-29.09 328.5,-29.09"/>
</a>
</g>
</g>
</g>
</svg>
