<?xml version="1.0" encoding="UTF-8" standalone="no"?>
<!DOCTYPE svg PUBLIC "-//W3C//DTD SVG 1.1//EN"
 "http://www.w3.org/Graphics/SVG/1.1/DTD/svg11.dtd">
<!-- Generated by graphviz version 2.43.0 (0)
 -->
<!-- Title: nitron::Table Pages: 1 -->
<svg width="148pt" height="558pt"
 viewBox="0.00 0.00 148.00 558.00" xmlns="http://www.w3.org/2000/svg" xmlns:xlink="http://www.w3.org/1999/xlink">
<g id="graph0" class="graph" transform="scale(1 1) rotate(0) translate(4 554)">
<title>nitron::Table</title>
<!-- Node1 -->
<g id="Node000001" class="node">
<title>Node1</title>
<g id="a_Node000001"><a xlink:title=" ">
<polygon fill="#999999" stroke="transparent" points="130,-244 0,-244 0,0 130,0 130,-244"/>
<text text-anchor="start" x="34.5" y="-232" font-family="Helvetica,sans-Serif" font-size="10.00">nitron::Table</text>
<text text-anchor="start" x="4" y="-217" font-family="Helvetica,sans-Serif" font-size="10.00">+</text>
<text text-anchor="start" x="17" y="-217" font-family="Helvetica,sans-Serif" font-size="10.00">MAX_FIELD_WIDTH</text>
<text text-anchor="start" x="6.5" y="-202" font-family="Helvetica,sans-Serif" font-size="10.00">&#45;</text>
<text text-anchor="start" x="17" y="-202" font-family="Helvetica,sans-Serif" font-size="10.00">m_headers</text>
<text text-anchor="start" x="6.5" y="-187" font-family="Helvetica,sans-Serif" font-size="10.00">&#45;</text>
<text text-anchor="start" x="17" y="-187" font-family="Helvetica,sans-Serif" font-size="10.00">m_records</text>
<text text-anchor="start" x="4" y="-172" font-family="Helvetica,sans-Serif" font-size="10.00">+</text>
<text text-anchor="start" x="17" y="-172" font-family="Helvetica,sans-Serif" font-size="10.00">insertField()</text>
<text text-anchor="start" x="4" y="-157" font-family="Helvetica,sans-Serif" font-size="10.00">+</text>
<text text-anchor="start" x="17" y="-157" font-family="Helvetica,sans-Serif" font-size="10.00">emplaceBackField()</text>
<text text-anchor="start" x="4" y="-142" font-family="Helvetica,sans-Serif" font-size="10.00">+</text>
<text text-anchor="start" x="17" y="-142" font-family="Helvetica,sans-Serif" font-size="10.00">emplaceFrontField()</text>
<text text-anchor="start" x="4" y="-127" font-family="Helvetica,sans-Serif" font-size="10.00">+</text>
<text text-anchor="start" x="17" y="-127" font-family="Helvetica,sans-Serif" font-size="10.00">eraseField()</text>
<text text-anchor="start" x="4" y="-112" font-family="Helvetica,sans-Serif" font-size="10.00">+</text>
<text text-anchor="start" x="17" y="-112" font-family="Helvetica,sans-Serif" font-size="10.00">popBackField()</text>
<text text-anchor="start" x="4" y="-97" font-family="Helvetica,sans-Serif" font-size="10.00">+</text>
<text text-anchor="start" x="17" y="-97" font-family="Helvetica,sans-Serif" font-size="10.00">popFrontField()</text>
<text text-anchor="start" x="4" y="-82" font-family="Helvetica,sans-Serif" font-size="10.00">+</text>
<text text-anchor="start" x="17" y="-82" font-family="Helvetica,sans-Serif" font-size="10.00">insertRecord()</text>
<text text-anchor="start" x="4" y="-67" font-family="Helvetica,sans-Serif" font-size="10.00">+</text>
<text text-anchor="start" x="17" y="-67" font-family="Helvetica,sans-Serif" font-size="10.00">emplaceBackRecord()</text>
<text text-anchor="start" x="4" y="-52" font-family="Helvetica,sans-Serif" font-size="10.00">+</text>
<text text-anchor="start" x="17" y="-52" font-family="Helvetica,sans-Serif" font-size="10.00">emplaceFrontRecord()</text>
<text text-anchor="start" x="4" y="-37" font-family="Helvetica,sans-Serif" font-size="10.00">+</text>
<text text-anchor="start" x="17" y="-37" font-family="Helvetica,sans-Serif" font-size="10.00">eraseRecord()</text>
<text text-anchor="start" x="17" y="-22" font-family="Helvetica,sans-Serif" font-size="10.00">and 8 more...</text>
<text text-anchor="start" x="6.5" y="-7" font-family="Helvetica,sans-Serif" font-size="10.00">&#45;</text>
<text text-anchor="start" x="17" y="-7" font-family="Helvetica,sans-Serif" font-size="10.00">assertCompatibility()</text>
<polygon fill="#666666" stroke="#666666" points="0,-227 0,-227 130,-227 130,-227 0,-227"/>
<polygon fill="#666666" stroke="#666666" points="0,-182 0,-182 15,-182 15,-182 0,-182"/>
<polygon fill="#666666" stroke="#666666" points="15,-182 15,-182 130,-182 130,-182 15,-182"/>
<polygon fill="none" stroke="#666666" points="0,0 0,-244 130,-244 130,0 0,0"/>
</a>
</g>
</g>
<!-- Node2 -->
<g id="Node000002" class="node">
<title>Node2</title>
<g id="a_Node000002"><a xlink:href="../../dd/dfe/classnitron_1_1Record.html" target="_top" xlink:title=" ">
<polygon fill="white" stroke="transparent" points="124.5,-550 5.5,-550 5.5,-291 124.5,-291 124.5,-550"/>
<text text-anchor="start" x="31" y="-537.5" font-family="Helvetica,sans-Serif" font-size="10.00">nitron::Record</text>
<text text-anchor="start" x="10" y="-522.5" font-family="Helvetica,sans-Serif" font-size="10.00">+</text>
<text text-anchor="start" x="23" y="-522.5" font-family="Helvetica,sans-Serif" font-size="10.00">SIZE_MISMATCH</text>
<text text-anchor="start" x="12.5" y="-507.5" font-family="Helvetica,sans-Serif" font-size="10.00">&#45;</text>
<text text-anchor="start" x="23" y="-507.5" font-family="Helvetica,sans-Serif" font-size="10.00">m_cells</text>
<text text-anchor="start" x="10" y="-492.5" font-family="Helvetica,sans-Serif" font-size="10.00">+</text>
<text text-anchor="start" x="23" y="-492.5" font-family="Helvetica,sans-Serif" font-size="10.00">insertField()</text>
<text text-anchor="start" x="10" y="-477.5" font-family="Helvetica,sans-Serif" font-size="10.00">+</text>
<text text-anchor="start" x="23" y="-477.5" font-family="Helvetica,sans-Serif" font-size="10.00">emplaceBackField()</text>
<text text-anchor="start" x="10" y="-462.5" font-family="Helvetica,sans-Serif" font-size="10.00">+</text>
<text text-anchor="start" x="23" y="-462.5" font-family="Helvetica,sans-Serif" font-size="10.00">emplaceFrontField()</text>
<text text-anchor="start" x="10" y="-447.5" font-family="Helvetica,sans-Serif" font-size="10.00">+</text>
<text text-anchor="start" x="23" y="-447.5" font-family="Helvetica,sans-Serif" font-size="10.00">eraseField()</text>
<text text-anchor="start" x="10" y="-432.5" font-family="Helvetica,sans-Serif" font-size="10.00">+</text>
<text text-anchor="start" x="23" y="-432.5" font-family="Helvetica,sans-Serif" font-size="10.00">popBackField()</text>
<text text-anchor="start" x="10" y="-417.5" font-family="Helvetica,sans-Serif" font-size="10.00">+</text>
<text text-anchor="start" x="23" y="-417.5" font-family="Helvetica,sans-Serif" font-size="10.00">popFrontField()</text>
<text text-anchor="start" x="10" y="-402.5" font-family="Helvetica,sans-Serif" font-size="10.00">+</text>
<text text-anchor="start" x="23" y="-402.5" font-family="Helvetica,sans-Serif" font-size="10.00">at()</text>
<text text-anchor="start" x="10" y="-387.5" font-family="Helvetica,sans-Serif" font-size="10.00">+</text>
<text text-anchor="start" x="23" y="-387.5" font-family="Helvetica,sans-Serif" font-size="10.00">at()</text>
<text text-anchor="start" x="10" y="-372.5" font-family="Helvetica,sans-Serif" font-size="10.00">+</text>
<text text-anchor="start" x="23" y="-372.5" font-family="Helvetica,sans-Serif" font-size="10.00">getValueAt()</text>
<text text-anchor="start" x="10" y="-357.5" font-family="Helvetica,sans-Serif" font-size="10.00">+</text>
<text text-anchor="start" x="23" y="-357.5" font-family="Helvetica,sans-Serif" font-size="10.00">setValueAt()</text>
<text text-anchor="start" x="10" y="-342.5" font-family="Helvetica,sans-Serif" font-size="10.00">+</text>
<text text-anchor="start" x="23" y="-342.5" font-family="Helvetica,sans-Serif" font-size="10.00">getStringAt()</text>
<text text-anchor="start" x="10" y="-327.5" font-family="Helvetica,sans-Serif" font-size="10.00">+</text>
<text text-anchor="start" x="23" y="-327.5" font-family="Helvetica,sans-Serif" font-size="10.00">setStringAt()</text>
<text text-anchor="start" x="10" y="-312.5" font-family="Helvetica,sans-Serif" font-size="10.00">+</text>
<text text-anchor="start" x="23" y="-312.5" font-family="Helvetica,sans-Serif" font-size="10.00">degree()</text>
<text text-anchor="start" x="10" y="-297.5" font-family="Helvetica,sans-Serif" font-size="10.00">+</text>
<text text-anchor="start" x="23" y="-297.5" font-family="Helvetica,sans-Serif" font-size="10.00">incompatability()</text>
<polygon fill="#666666" stroke="#666666" points="6,-532.5 6,-532.5 125,-532.5 125,-532.5 6,-532.5"/>
<polygon fill="#666666" stroke="#666666" points="6,-502.5 6,-502.5 21,-502.5 21,-502.5 6,-502.5"/>
<polygon fill="#666666" stroke="#666666" points="21,-502.5 21,-502.5 125,-502.5 125,-502.5 21,-502.5"/>
<polygon fill="none" stroke="#666666" points="5.5,-291 5.5,-550 124.5,-550 124.5,-291 5.5,-291"/>
</a>
</g>
</g>
<!-- Node2&#45;&gt;Node1 -->
<g id="edge1_Node000001_Node000002" class="edge">
<title>Node2&#45;&gt;Node1</title>
<g id="a_edge1_Node000001_Node000002"><a xlink:title=" ">
<path fill="none" stroke="#63b8ff" d="M65,-290.74C65,-279.38 65,-267.86 65,-256.46"/>
<polygon fill="none" stroke="#63b8ff" points="65,-256.15 61,-250.15 65,-244.15 69,-250.15 65,-256.15"/>
</a>
</g>
<text text-anchor="middle" x="102.5" y="-265" font-family="Helvetica,sans-Serif" font-size="10.00" fill="grey"> &#45;m_prototypes</text>
</g>
</g>
</svg>
