<?xml version="1.0" encoding="UTF-8" standalone="no"?>
<!DOCTYPE svg PUBLIC "-//W3C//DTD SVG 1.1//EN"
 "http://www.w3.org/Graphics/SVG/1.1/DTD/svg11.dtd">
<!-- Generated by graphviz version 2.43.0 (0)
 -->
<!-- Title: nitron::DataHolder&lt; Type &gt; Pages: 1 -->
<svg width="112pt" height="303pt"
 viewBox="0.00 0.00 112.00 303.00" xmlns="http://www.w3.org/2000/svg" xmlns:xlink="http://www.w3.org/1999/xlink">
<g id="graph0" class="graph" transform="scale(1 1) rotate(0) translate(4 299)">
<title>nitron::DataHolder&lt; Type &gt;</title>
<!-- Node1 -->
<g id="Node000001" class="node">
<title>Node1</title>
<g id="a_Node000001"><a xlink:title=" ">
<polygon fill="#999999" stroke="transparent" points="102.5,-150 1.5,-150 1.5,0 102.5,0 102.5,-150"/>
<text text-anchor="start" x="7" y="-138" font-family="Helvetica,sans-Serif" font-size="10.00">nitron::DataHolder</text>
<text text-anchor="start" x="29.5" y="-127" font-family="Helvetica,sans-Serif" font-size="10.00">&lt; Type &gt;</text>
<text text-anchor="start" x="12.5" y="-112" font-family="Helvetica,sans-Serif" font-size="10.00">&#45;</text>
<text text-anchor="start" x="27" y="-112" font-family="Helvetica,sans-Serif" font-size="10.00">m_data</text>
<text text-anchor="start" x="10" y="-97" font-family="Helvetica,sans-Serif" font-size="10.00">+</text>
<text text-anchor="start" x="27" y="-97" font-family="Helvetica,sans-Serif" font-size="10.00">clone()</text>
<text text-anchor="start" x="10" y="-82" font-family="Helvetica,sans-Serif" font-size="10.00">+</text>
<text text-anchor="start" x="27" y="-82" font-family="Helvetica,sans-Serif" font-size="10.00">getType()</text>
<text text-anchor="start" x="10" y="-67" font-family="Helvetica,sans-Serif" font-size="10.00">+</text>
<text text-anchor="start" x="27" y="-67" font-family="Helvetica,sans-Serif" font-size="10.00">getString()</text>
<text text-anchor="start" x="10" y="-52" font-family="Helvetica,sans-Serif" font-size="10.00">+</text>
<text text-anchor="start" x="27" y="-52" font-family="Helvetica,sans-Serif" font-size="10.00">setString()</text>
<text text-anchor="start" x="10" y="-37" font-family="Helvetica,sans-Serif" font-size="10.00">+</text>
<text text-anchor="start" x="27" y="-37" font-family="Helvetica,sans-Serif" font-size="10.00">getValue()</text>
<text text-anchor="start" x="10" y="-22" font-family="Helvetica,sans-Serif" font-size="10.00">+</text>
<text text-anchor="start" x="27" y="-22" font-family="Helvetica,sans-Serif" font-size="10.00">setValue()</text>
<text text-anchor="start" x="10" y="-7" font-family="Helvetica,sans-Serif" font-size="10.00">+</text>
<text text-anchor="start" x="27" y="-7" font-family="Helvetica,sans-Serif" font-size="10.00">DataHolder()</text>
<polygon fill="#666666" stroke="#666666" points="2,-122 2,-122 103,-122 103,-122 2,-122"/>
<polygon fill="#666666" stroke="#666666" points="2,-107 2,-107 25,-107 25,-107 2,-107"/>
<polygon fill="#666666" stroke="#666666" points="25,-107 25,-107 103,-107 103,-107 25,-107"/>
<polygon fill="none" stroke="#666666" points="1.5,0 1.5,-150 102.5,-150 102.5,0 1.5,0"/>
</a>
</g>
</g>
<!-- Node2 -->
<g id="Node000002" class="node">
<title>Node2</title>
<g id="a_Node000002"><a xlink:href="../../d6/d72/classnitron_1_1IDataHolder.html" target="_top" xlink:title=" ">
<polygon fill="white" stroke="transparent" points="104,-295 0,-295 0,-186 104,-186 104,-295"/>
<text text-anchor="start" x="5" y="-282.5" font-family="Helvetica,sans-Serif" font-size="10.00">nitron::IDataHolder</text>
<text text-anchor="start" x="50" y="-267.5" font-family="Helvetica,sans-Serif" font-size="10.00"> </text>
<text text-anchor="start" x="6" y="-252.5" font-family="Helvetica,sans-Serif" font-size="10.00">+</text>
<text text-anchor="start" x="21" y="-252.5" font-family="Helvetica,sans-Serif" font-size="10.00">~IDataHolder()</text>
<text text-anchor="start" x="6" y="-237.5" font-family="Helvetica,sans-Serif" font-size="10.00">+</text>
<text text-anchor="start" x="21" y="-237.5" font-family="Helvetica,sans-Serif" font-size="10.00">clone()</text>
<text text-anchor="start" x="6" y="-222.5" font-family="Helvetica,sans-Serif" font-size="10.00">+</text>
<text text-anchor="start" x="21" y="-222.5" font-family="Helvetica,sans-Serif" font-size="10.00">getType()</text>
<text text-anchor="start" x="6" y="-207.5" font-family="Helvetica,sans-Serif" font-size="10.00">+</text>
<text text-anchor="start" x="21" y="-207.5" font-family="Helvetica,sans-Serif" font-size="10.00">getString()</text>
<text text-anchor="start" x="6" y="-192.5" font-family="Helvetica,sans-Serif" font-size="10.00">+</text>
<text text-anchor="start" x="21" y="-192.5" font-family="Helvetica,sans-Serif" font-size="10.00">setString()</text>
<polygon fill="#666666" stroke="#666666" points="0,-277.5 0,-277.5 104,-277.5 104,-277.5 0,-277.5"/>
<polygon fill="#666666" stroke="#666666" points="0,-262.5 0,-262.5 104,-262.5 104,-262.5 0,-262.5"/>
<polygon fill="none" stroke="#666666" points="0,-186 0,-295 104,-295 104,-186 0,-186"/>
</a>
</g>
</g>
<!-- Node2&#45;&gt;Node1 -->
<g id="edge1_Node000001_Node000002" class="edge">
<title>Node2&#45;&gt;Node1</title>
<g id="a_edge1_Node000001_Node000002"><a xlink:title=" ">
<path fill="none" stroke="#63b8ff" d="M52,-175.84C52,-167.42 52,-158.72 52,-150.14"/>
<polygon fill="none" stroke="#63b8ff" points="48.5,-175.96 52,-185.96 55.5,-175.96 48.5,-175.96"/>
</a>
</g>
</g>
</g>
</svg>
