<?xml version="1.0" encoding="UTF-8" standalone="no"?>
<!DOCTYPE svg PUBLIC "-//W3C//DTD SVG 1.1//EN"
 "http://www.w3.org/Graphics/SVG/1.1/DTD/svg11.dtd">
<!-- Generated by graphviz version 2.43.0 (0)
 -->
<!-- Title: nitron::DataHolder&lt; Type &gt; Pages: 1 -->
<svg width="172pt" height="314pt"
 viewBox="0.00 0.00 172.00 314.00" xmlns="http://www.w3.org/2000/svg" xmlns:xlink="http://www.w3.org/1999/xlink">
<g id="graph0" class="graph" transform="scale(1 1) rotate(0) translate(4 310)">
<title>nitron::DataHolder&lt; Type &gt;</title>
<!-- Node1 -->
<g id="Node000001" class="node">
<title>Node1</title>
<g id="a_Node000001"><a xlink:title=" ">
<polygon fill="#999999" stroke="transparent" points="145.5,-150 44.5,-150 44.5,0 145.5,0 145.5,-150"/>
<text text-anchor="start" x="50" y="-138" font-family="Helvetica,sans-Serif" font-size="10.00">nitron::DataHolder</text>
<text text-anchor="start" x="72.5" y="-127" font-family="Helvetica,sans-Serif" font-size="10.00">&lt; Type &gt;</text>
<text text-anchor="start" x="93.5" y="-112" font-family="Helvetica,sans-Serif" font-size="10.00"> </text>
<text text-anchor="start" x="53" y="-97" font-family="Helvetica,sans-Serif" font-size="10.00">+</text>
<text text-anchor="start" x="70" y="-97" font-family="Helvetica,sans-Serif" font-size="10.00">clone()</text>
<text text-anchor="start" x="53" y="-82" font-family="Helvetica,sans-Serif" font-size="10.00">+</text>
<text text-anchor="start" x="70" y="-82" font-family="Helvetica,sans-Serif" font-size="10.00">getType()</text>
<text text-anchor="start" x="53" y="-67" font-family="Helvetica,sans-Serif" font-size="10.00">+</text>
<text text-anchor="start" x="70" y="-67" font-family="Helvetica,sans-Serif" font-size="10.00">getString()</text>
<text text-anchor="start" x="53" y="-52" font-family="Helvetica,sans-Serif" font-size="10.00">+</text>
<text text-anchor="start" x="70" y="-52" font-family="Helvetica,sans-Serif" font-size="10.00">setString()</text>
<text text-anchor="start" x="53" y="-37" font-family="Helvetica,sans-Serif" font-size="10.00">+</text>
<text text-anchor="start" x="70" y="-37" font-family="Helvetica,sans-Serif" font-size="10.00">getValue()</text>
<text text-anchor="start" x="53" y="-22" font-family="Helvetica,sans-Serif" font-size="10.00">+</text>
<text text-anchor="start" x="70" y="-22" font-family="Helvetica,sans-Serif" font-size="10.00">setValue()</text>
<text text-anchor="start" x="53" y="-7" font-family="Helvetica,sans-Serif" font-size="10.00">+</text>
<text text-anchor="start" x="70" y="-7" font-family="Helvetica,sans-Serif" font-size="10.00">DataHolder()</text>
<polygon fill="#666666" stroke="#666666" points="45,-122 45,-122 146,-122 146,-122 45,-122"/>
<polygon fill="#666666" stroke="#666666" points="45,-107 45,-107 146,-107 146,-107 45,-107"/>
<polygon fill="none" stroke="#666666" points="44.5,0 44.5,-150 145.5,-150 145.5,0 44.5,0"/>
</a>
</g>
</g>
<!-- Node2 -->
<g id="Node000002" class="node">
<title>Node2</title>
<g id="a_Node000002"><a xlink:href="../../d6/d72/classnitron_1_1IDataHolder.html" target="_top" xlink:title=" ">
<polygon fill="white" stroke="transparent" points="104,-306 0,-306 0,-197 104,-197 104,-306"/>
<text text-anchor="start" x="5" y="-293.5" font-family="Helvetica,sans-Serif" font-size="10.00">nitron::IDataHolder</text>
<text text-anchor="start" x="50" y="-278.5" font-family="Helvetica,sans-Serif" font-size="10.00"> </text>
<text text-anchor="start" x="6" y="-263.5" font-family="Helvetica,sans-Serif" font-size="10.00">+</text>
<text text-anchor="start" x="21" y="-263.5" font-family="Helvetica,sans-Serif" font-size="10.00">~IDataHolder()</text>
<text text-anchor="start" x="6" y="-248.5" font-family="Helvetica,sans-Serif" font-size="10.00">+</text>
<text text-anchor="start" x="21" y="-248.5" font-family="Helvetica,sans-Serif" font-size="10.00">clone()</text>
<text text-anchor="start" x="6" y="-233.5" font-family="Helvetica,sans-Serif" font-size="10.00">+</text>
<text text-anchor="start" x="21" y="-233.5" font-family="Helvetica,sans-Serif" font-size="10.00">getType()</text>
<text text-anchor="start" x="6" y="-218.5" font-family="Helvetica,sans-Serif" font-size="10.00">+</text>
<text text-anchor="start" x="21" y="-218.5" font-family="Helvetica,sans-Serif" font-size="10.00">getString()</text>
<text text-anchor="start" x="6" y="-203.5" font-family="Helvetica,sans-Serif" font-size="10.00">+</text>
<text text-anchor="start" x="21" y="-203.5" font-family="Helvetica,sans-Serif" font-size="10.00">setString()</text>
<polygon fill="#666666" stroke="#666666" points="0,-288.5 0,-288.5 104,-288.5 104,-288.5 0,-288.5"/>
<polygon fill="#666666" stroke="#666666" points="0,-273.5 0,-273.5 104,-273.5 104,-273.5 0,-273.5"/>
<polygon fill="none" stroke="#666666" points="0,-197 0,-306 104,-306 104,-197 0,-197"/>
</a>
</g>
</g>
<!-- Node2&#45;&gt;Node1 -->
<g id="edge1_Node000001_Node000002" class="edge">
<title>Node2&#45;&gt;Node1</title>
<g id="a_edge1_Node000001_Node000002"><a xlink:title=" ">
<path fill="none" stroke="#63b8ff" d="M67.68,-186.87C70.62,-174.93 73.72,-162.36 76.73,-150.14"/>
<polygon fill="none" stroke="#63b8ff" points="64.25,-186.17 65.25,-196.72 71.04,-187.85 64.25,-186.17"/>
</a>
</g>
</g>
<!-- Node3 -->
<g id="Node000003" class="node">
<title>Node3</title>
<g id="a_Node000003"><a xlink:title=" ">
<polygon fill="white" stroke="transparent" points="155.5,-276 122.5,-276 122.5,-227 155.5,-227 155.5,-276"/>
<text text-anchor="start" x="128" y="-263.5" font-family="Helvetica,sans-Serif" font-size="10.00">Type</text>
<text text-anchor="start" x="137.5" y="-248.5" font-family="Helvetica,sans-Serif" font-size="10.00"> </text>
<text text-anchor="start" x="137.5" y="-233.5" font-family="Helvetica,sans-Serif" font-size="10.00"> </text>
<polygon fill="#666666" stroke="#666666" points="123,-258.5 123,-258.5 156,-258.5 156,-258.5 123,-258.5"/>
<polygon fill="#666666" stroke="#666666" points="123,-243.5 123,-243.5 156,-243.5 156,-243.5 123,-243.5"/>
<polygon fill="none" stroke="#666666" points="122.5,-227 122.5,-276 155.5,-276 155.5,-227 122.5,-227"/>
</a>
</g>
</g>
<!-- Node3&#45;&gt;Node1 -->
<g id="edge2_Node000001_Node000003" class="edge">
<title>Node3&#45;&gt;Node1</title>
<g id="a_edge2_Node000001_Node000003"><a xlink:title=" ">
<path fill="none" stroke="#63b8ff" d="M133.07,-226.97C128.77,-209.94 122.68,-185.79 116.63,-161.79"/>
<polygon fill="none" stroke="#63b8ff" points="116.61,-161.68 111.26,-156.85 113.67,-150.05 119.02,-154.89 116.61,-161.68"/>
</a>
</g>
<text text-anchor="middle" x="142" y="-171" font-family="Helvetica,sans-Serif" font-size="10.00" fill="grey"> &#45;m_data</text>
</g>
</g>
</svg>
