<?xml version="1.0" encoding="UTF-8" standalone="no"?>
<!DOCTYPE svg PUBLIC "-//W3C//DTD SVG 1.1//EN"
 "http://www.w3.org/Graphics/SVG/1.1/DTD/svg11.dtd">
<!-- Generated by graphviz version 2.43.0 (0)
 -->
<!-- Title: include/Functor.hpp Pages: 1 -->
<svg width="268pt" height="82pt"
 viewBox="0.00 0.00 268.00 82.00" xmlns="http://www.w3.org/2000/svg" xmlns:xlink="http://www.w3.org/1999/xlink">
<g id="graph0" class="graph" transform="scale(1 1) rotate(0) translate(4 78)">
<title>include/Functor.hpp</title>
<!-- Node1 -->
<g id="Node000001" class="node">
<title>Node1</title>
<g id="a_Node000001"><a xlink:title="implements some Functor concepts">
<polygon fill="#999999" stroke="#666666" points="182.5,-74 71.5,-74 71.5,-55 182.5,-55 182.5,-74"/>
<text text-anchor="middle" x="127" y="-62" font-family="Helvetica,sans-Serif" font-size="10.00">include/Functor.hpp</text>
</a>
</g>
</g>
<!-- Node2 -->
<g id="Node000002" class="node">
<title>Node2</title>
<g id="a_Node000002"><a xlink:href="../../dd/df4/Promise_8hpp.html" target="_top" xlink:title="implements the JS&#45;like Promise class">
<polygon fill="white" stroke="#666666" points="116,-19 0,-19 0,0 116,0 116,-19"/>
<text text-anchor="middle" x="58" y="-7" font-family="Helvetica,sans-Serif" font-size="10.00">include/Promise.hpp</text>
</a>
</g>
</g>
<!-- Node1&#45;&gt;Node2 -->
<g id="edge1_Node000001_Node000002" class="edge">
<title>Node1&#45;&gt;Node2</title>
<g id="a_edge1_Node000001_Node000002"><a xlink:title=" ">
<path fill="none" stroke="#63b8ff" d="M107.96,-48.88C95.54,-39.34 79.76,-27.21 69.29,-19.17"/>
<polygon fill="#63b8ff" stroke="#63b8ff" points="105.85,-51.67 115.91,-54.98 110.12,-46.12 105.85,-51.67"/>
</a>
</g>
</g>
<!-- Node3 -->
<g id="Node000003" class="node">
<title>Node3</title>
<g id="a_Node000003"><a xlink:href="../../d9/d21/Spec_8hpp.html" target="_top" xlink:title="implements JS&#45;jasmine&#45;like spec suite using Test and Spec classes">
<polygon fill="white" stroke="#666666" points="260,-19 134,-19 134,0 260,0 260,-19"/>
<text text-anchor="middle" x="197" y="-7" font-family="Helvetica,sans-Serif" font-size="10.00">include/tests/Spec.hpp</text>
</a>
</g>
</g>
<!-- Node1&#45;&gt;Node3 -->
<g id="edge2_Node000001_Node000003" class="edge">
<title>Node1&#45;&gt;Node3</title>
<g id="a_edge2_Node000001_Node000003"><a xlink:title=" ">
<path fill="none" stroke="#63b8ff" d="M146.31,-48.88C158.91,-39.34 174.93,-27.21 185.55,-19.17"/>
<polygon fill="#63b8ff" stroke="#63b8ff" points="144.11,-46.16 138.25,-54.98 148.33,-51.74 144.11,-46.16"/>
</a>
</g>
</g>
</g>
</svg>
